<mxfile host="app.diagrams.net" modified="2022-09-01T11:52:59.848Z" agent="5.0 (Windows NT 10.0; Win64; x64) AppleWebKit/537.36 (KHTML, like Gecko) Chrome/104.0.5112.102 Safari/537.36 Edg/104.0.1293.70" etag="XV6_6fojXkRlRJxMATA0" version="20.2.7" type="github">
  <diagram id="eR63X8NnuSsTRKCrHBx-" name="第 1 页">
    <mxGraphModel dx="1038" dy="600" grid="1" gridSize="10" guides="1" tooltips="1" connect="1" arrows="1" fold="1" page="1" pageScale="1" pageWidth="827" pageHeight="1169" math="0" shadow="0">
      <root>
        <mxCell id="0" />
        <mxCell id="1" parent="0" />
      </root>
    </mxGraphModel>
  </diagram>
</mxfile>
